# xmcd CD database file
#
# Track frame offsets:
#	150
#	15666
#	38401
#	60666
#	79306
#	103895
#	121970
#	144678
#	169002
#	191375
#	212078
#
# Disc length: 3115 seconds
#
# Revision: 0
# Processed by: cddbd v1.5.2PL0 Copyright (c) Steve Scherf et al.
# Submitted via: CDex 1.70beta2
#
DISCID=920c290b
DTITLE=Will Downing - After Tonight
DYEAR=2007
DGENRE=Jazz
TTITLE0=Will's Groove
TTITLE1=fantasy (spending time with you)
TTITLE2=after tonight
TTITLE3=no one can love you more fea gerald albright
TTITLE4=lover's melody fea roy ayers
TTITLE5=satisfy you
TTITLE6=all i need is you fea kirk whalum
TTITLE7=god is so amazing
TTITLE8=you just can't smile it away fea kirk whalum
TTITLE9=after tonight (between the sheets remix)
TTITLE10=fantasy (spending time with you) (rmx)
EXTD=YEAR: 2007
EXTT0=
EXTT1=
EXTT2=
EXTT3=
EXTT4=
EXTT5=
EXTT6=
EXTT7=
EXTT8=
EXTT9=
EXTT10=
PLAYORDER=
